<svg width="20" height="20" viewBox="0 0 20 20" fill="none" xmlns="http://www.w3.org/2000/svg">
<path d="M1.66663 4.16669L7.49996 1.66669L12.5 4.16669L17.7525 1.91585C17.8159 1.88867 17.885 1.87766 17.9537 1.88381C18.0224 1.88995 18.0886 1.91306 18.1461 1.95106C18.2037 1.98906 18.251 2.04076 18.2836 2.10152C18.3163 2.16228 18.3334 2.2302 18.3333 2.29919V15.8334L12.5 18.3334L7.49996 15.8334L2.24746 18.0842C2.18405 18.1114 2.11489 18.1224 2.04618 18.1162C1.97747 18.1101 1.91136 18.087 1.85378 18.049C1.79621 18.011 1.74896 17.9593 1.7163 17.8985C1.68363 17.8378 1.66656 17.7698 1.66663 17.7009V4.16669ZM13.3333 16.1625L16.6666 14.7342V4.19419L13.3333 5.62252V16.1625ZM11.6666 16.0534V5.61335L8.33329 3.94669V14.3867L11.6666 16.0534ZM6.66663 14.3775V3.83752L3.33329 5.26585V15.8059L6.66663 14.3775Z" fill="#0F1324" fill-opacity="0.6"/>
</svg>
