<svg width="20" height="20" viewBox="0 0 20 20" fill="none" xmlns="http://www.w3.org/2000/svg">
<path d="M16.6667 1.66675C16.8877 1.66675 17.0996 1.75455 17.2559 1.91083C17.4122 2.06711 17.5 2.27907 17.5 2.50008V17.5001C17.5 17.7211 17.4122 17.9331 17.2559 18.0893C17.0996 18.2456 16.8877 18.3334 16.6667 18.3334H3.33333C3.11232 18.3334 2.90036 18.2456 2.74408 18.0893C2.5878 17.9331 2.5 17.7211 2.5 17.5001V2.50008C2.5 2.27907 2.5878 2.06711 2.74408 1.91083C2.90036 1.75455 3.11232 1.66675 3.33333 1.66675H16.6667ZM15.8333 3.33341H4.16667V16.6667H15.8333V3.33341ZM13.3333 13.3334V15.0001H6.66667V13.3334H13.3333ZM10 5.00008C10.8841 5.00008 11.7319 5.35127 12.357 5.97639C12.9821 6.60151 13.3333 7.44936 13.3333 8.33342C13.3333 9.21747 12.9821 10.0653 12.357 10.6904C11.7319 11.3156 10.8841 11.6667 10 11.6667C9.11594 11.6667 8.2681 11.3156 7.64298 10.6904C7.01786 10.0653 6.66667 9.21747 6.66667 8.33342C6.66667 7.44936 7.01786 6.60151 7.64298 5.97639C8.2681 5.35127 9.11594 5.00008 10 5.00008ZM10 6.66675C9.55797 6.66675 9.13405 6.84234 8.82149 7.1549C8.50893 7.46746 8.33333 7.89139 8.33333 8.33342C8.33333 8.77544 8.50893 9.19937 8.82149 9.51193C9.13405 9.82449 9.55797 10.0001 10 10.0001C10.442 10.0001 10.866 9.82449 11.1785 9.51193C11.4911 9.19937 11.6667 8.77544 11.6667 8.33342C11.6667 7.89139 11.4911 7.46746 11.1785 7.1549C10.866 6.84234 10.442 6.66675 10 6.66675Z" fill="#0D1126" fill-opacity="0.4"/>
</svg>
